<svg aria-hidden="true" style="position: absolute; width: 0; height: 0; overflow: hidden;" version="1.1" xmlns="http://www.w3.org/2000/svg" xmlns:xlink="http://www.w3.org/1999/xlink">
<defs>
<symbol id="icon-lock-02" viewBox="0 0 32 32">
<path stroke-linejoin="round" stroke-linecap="round" stroke-miterlimit="4" stroke-width="2.2857" d="M22.667 14.667v-4c0-3.682-2.985-6.667-6.667-6.667s-6.667 2.985-6.667 6.667v4M10.4 28h11.2c2.24 0 3.36 0 4.216-0.436 0.753-0.383 1.365-0.995 1.748-1.748 0.436-0.856 0.436-1.976 0.436-4.216v-0.533c0-2.24 0-3.36-0.436-4.216-0.383-0.753-0.995-1.365-1.748-1.748-0.856-0.436-1.976-0.436-4.216-0.436h-11.2c-2.24 0-3.36 0-4.216 0.436-0.753 0.384-1.365 0.995-1.748 1.748-0.436 0.856-0.436 1.976-0.436 4.216v0.533c0 2.24 0 3.36 0.436 4.216 0.383 0.753 0.995 1.365 1.748 1.748 0.856 0.436 1.976 0.436 4.216 0.436z"></path>
</symbol>
<symbol id="icon-mail-02" viewBox="0 0 32 32">
<path stroke-linejoin="round" stroke-linecap="round" stroke-miterlimit="4" stroke-width="2.2857" d="M28.667 24l-8.857-8M12.191 16l-8.857 8M2.667 9.333l10.886 7.621c0.882 0.617 1.322 0.926 1.802 1.045 0.424 0.106 0.866 0.106 1.29 0 0.479-0.12 0.92-0.428 1.802-1.045l10.887-7.621M9.067 26.667h13.867c2.24 0 3.36 0 4.216-0.436 0.753-0.384 1.365-0.995 1.748-1.748 0.436-0.856 0.436-1.976 0.436-4.216v-8.533c0-2.24 0-3.36-0.436-4.216-0.384-0.753-0.995-1.365-1.748-1.748-0.856-0.436-1.976-0.436-4.216-0.436h-13.867c-2.24 0-3.36 0-4.216 0.436-0.753 0.383-1.365 0.995-1.748 1.748-0.436 0.856-0.436 1.976-0.436 4.216v8.533c0 2.24 0 3.36 0.436 4.216 0.384 0.753 0.995 1.365 1.748 1.748 0.856 0.436 1.976 0.436 4.216 0.436z"></path>
</symbol>
</defs>
</svg>
